<svg width="100%" height="100%" viewBox="0 0 240 240" version="1.1" xmlns="http://www.w3.org/2000/svg" xmlns:xlink="http://www.w3.org/1999/xlink" xml:space="preserve">
    <path d="M229.39,109.153L130.61,10.373C124.78,4.543 115.23,4.543 109.4,10.373L10.61,109.153C4.78,114.983 0,126.512 0,134.762L0,224.762C0,233.012 6.75,239.762 15,239.762L225,239.772C233.25,239.772 240,233.022 240,224.772L240,134.772C240,126.522 235.23,115.002 229.39,109.162L229.39,109.153Z" style="fill:rgb(24,188,242);fill-rule:nonzero;"/>
    <g id="duplcati">
        <path d="M99.378,211.73C90.809,211.73 84.256,205.885 84.256,198.241L84.256,175.759C84.256,168.115 90.809,162.27 99.378,162.27L139.703,162.27C148.273,162.27 154.826,168.115 154.826,175.759L154.826,198.241C154.826,205.885 148.273,211.73 139.703,211.73L99.378,211.73Z" style="fill:rgb(101,177,221);fill-rule:nonzero;"/>
        <path d="M139.703,166.766C145.248,166.766 149.785,170.813 149.785,175.759L149.785,198.241C149.785,203.187 145.248,207.234 139.703,207.234L99.378,207.234C93.833,207.234 89.297,203.187 89.297,198.241L89.297,175.759C89.297,170.813 93.833,166.766 99.378,166.766L139.703,166.766ZM139.703,157.773L99.378,157.773C88.288,157.773 79.215,165.867 79.215,175.759L79.215,198.241C79.215,208.133 88.288,216.227 99.378,216.227L139.703,216.227C150.793,216.227 159.866,208.133 159.866,198.241L159.866,175.759C159.866,165.867 150.793,157.773 139.703,157.773Z" style="fill:white;fill-rule:nonzero;"/>
        <path d="M43.93,220.723C35.361,220.723 28.808,214.878 28.808,207.234L28.808,175.759C28.808,168.115 35.361,162.27 43.93,162.27L94.337,162.27C102.906,162.27 109.459,168.115 109.459,175.759L109.459,207.234C109.459,214.878 102.906,220.723 94.337,220.723L43.93,220.723Z" style="fill:rgb(51,102,151);fill-rule:nonzero;"/>
        <path d="M94.337,166.766C99.882,166.766 104.419,170.813 104.419,175.759L104.419,207.234C104.419,212.18 99.882,216.227 94.337,216.227L43.93,216.227C38.385,216.227 33.849,212.18 33.849,207.234L33.849,175.759C33.849,170.813 38.385,166.766 43.93,166.766L94.337,166.766ZM94.337,157.773L43.93,157.773C32.841,157.773 23.767,165.867 23.767,175.759L23.767,207.234C23.767,217.126 32.841,225.219 43.93,225.219L94.337,225.219C105.427,225.219 114.5,217.126 114.5,207.234L114.5,175.759C114.5,165.867 105.427,157.773 94.337,157.773Z" style="fill:white;fill-rule:nonzero;"/>
        <path d="M84.256,180.255C75.687,180.255 69.134,174.41 69.134,166.766L69.134,112.81C69.134,105.166 75.687,99.32 84.256,99.32L164.907,99.32C173.476,99.32 180.029,105.166 180.029,112.81L180.029,166.766C180.029,174.41 173.476,180.255 164.907,180.255L84.256,180.255Z" style="fill:rgb(29,71,117);fill-rule:nonzero;"/>
        <path d="M164.907,103.817C170.452,103.817 174.988,107.864 174.988,112.81L174.988,166.766C174.988,171.712 170.452,175.759 164.907,175.759L84.256,175.759C78.711,175.759 74.174,171.712 74.174,166.766L74.174,112.81C74.174,107.864 78.711,103.817 84.256,103.817L164.907,103.817ZM164.907,94.824L84.256,94.824C73.166,94.824 64.093,102.917 64.093,112.81L64.093,166.766C64.093,176.658 73.166,184.752 84.256,184.752L164.907,184.752C175.997,184.752 185.07,176.658 185.07,166.766L185.07,112.81C185.07,102.917 175.997,94.824 164.907,94.824Z" style="fill:white;fill-rule:nonzero;"/>
    </g>
</svg>
